<svg xmlns="http://www.w3.org/2000/svg" xmlns:xlink="http://www.w3.org/1999/xlink" viewBox="0 0 192.21 216.02"><defs><style>.cls-1{fill:url(#Dégradé_sans_nom_14);}.cls-2{fill:url(#Dégradé_sans_nom_14-2);}</style><linearGradient id="Dégradé_sans_nom_14" x1="96.11" y1="216.02" x2="96.11" y2="37.52" gradientUnits="userSpaceOnUse"><stop offset="0" stop-color="#eaf1fb"/><stop offset="1" stop-color="#bcceec"/></linearGradient><linearGradient id="Dégradé_sans_nom_14-2" x1="95.82" y1="84.06" x2="95.82" y2="0" xlink:href="#Dégradé_sans_nom_14"/></defs><g id="Calque_2" data-name="Calque 2"><g id="off"><path class="cls-1" d="M138.17,43.37h0a5.8,5.8,0,0,0,2.73,4.93A84,84,0,0,1,180.49,119c.32,45.64-36.45,83.62-82.08,84.7A84.12,84.12,0,0,1,50.77,49a5.77,5.77,0,0,0,2.63-4.86v-.33a5.82,5.82,0,0,0-8.9-5A96,96,0,0,0,0,119.75C-.09,172.11,42.38,215.28,94.74,216A96.11,96.11,0,0,0,147,38.41,5.82,5.82,0,0,0,138.17,43.37Z"/><rect class="cls-2" x="89.72" width="12.19" height="84.06" rx="6.1"/></g></g></svg>