<svg xmlns="http://www.w3.org/2000/svg" xmlns:xlink="http://www.w3.org/1999/xlink" viewBox="0 0 204.34 215.75"><defs><style>.cls-1{fill:url(#Dégradé_sans_nom_20);}.cls-2{fill:url(#Dégradé_sans_nom_20-2);}.cls-3{fill:url(#Dégradé_sans_nom_20-3);}</style><linearGradient id="Dégradé_sans_nom_20" x1="102.17" y1="215.75" x2="102.17" y2="11.41" gradientUnits="userSpaceOnUse"><stop offset="0" stop-color="#eaf1fb"/><stop offset="1" stop-color="#bcceec"/></linearGradient><linearGradient id="Dégradé_sans_nom_20-2" x1="173.62" y1="60.89" x2="173.62" y2="0" xlink:href="#Dégradé_sans_nom_20"/><linearGradient id="Dégradé_sans_nom_20-3" x1="123.17" y1="135.31" x2="123.17" y2="26.49" xlink:href="#Dégradé_sans_nom_20"/></defs><g id="Calque_2" data-name="Calque 2"><g id="modif"><path class="cls-1" d="M198.38,84.09h-.12a6,6,0,0,0-6,6V111.5c0,.22,0,.43,0,.65v84.92a6.69,6.69,0,0,1-6.68,6.68h-167A6.69,6.69,0,0,1,12,197.07v-167a6.69,6.69,0,0,1,6.68-6.68h85.18c0-.11.06-.24.1-.35a6,6,0,0,0,4-5.61v-.08a6,6,0,0,0-4.1-5.66c0-.1,0-.2-.07-.3H18.68A18.7,18.7,0,0,0,0,30.09v167a18.7,18.7,0,0,0,18.68,18.68h167a18.7,18.7,0,0,0,18.68-18.68v-107A6,6,0,0,0,198.38,84.09Z"/><path class="cls-2" d="M198.48,48.29a19.1,19.1,0,0,0,0-27l-15.7-15.7a19.1,19.1,0,0,0-27,0l-12.6,12.6,42.7,42.7Z"/><path class="cls-3" d="M68.77,127.65a7.47,7.47,0,0,0,7.65,7.66l35.9-.86,65.26-65.26-42.7-42.7L69.62,91.75Z"/></g></g></svg>