<svg xmlns="http://www.w3.org/2000/svg" viewBox="0 0 192.21 216.02"><g id="Calque_2" data-name="Calque 2"><g id="Calque_7" data-name="Calque 7"><path d="M138.17,43.37h0a5.8,5.8,0,0,0,2.73,4.93A84,84,0,0,1,180.49,119c.32,45.64-36.45,83.62-82.08,84.7A84.12,84.12,0,0,1,50.77,49a5.77,5.77,0,0,0,2.63-4.86v-.33a5.82,5.82,0,0,0-8.9-5A96,96,0,0,0,0,119.75C-.09,172.11,42.38,215.28,94.74,216A96.11,96.11,0,0,0,147,38.41,5.82,5.82,0,0,0,138.17,43.37Z"/><rect x="89.72" width="12.19" height="84.06" rx="6.1"/></g></g></svg>