<svg xmlns="http://www.w3.org/2000/svg" viewBox="0 0 216.31 216.02"><g id="Calque_2" data-name="Calque 2"><g id="Calque_1-2" data-name="Calque 1"><path d="M208,74.82h0L125.29,6.32a27.13,27.13,0,0,0-34.82,0L7.92,75.07H8A18.61,18.61,0,0,0,0,90.32V197.38A18.63,18.63,0,0,0,18.64,216H65.11a18.63,18.63,0,0,0,18.63-18.64V149c0-.14,0-.28,0-.41a6.19,6.19,0,0,1,6.17-5.79h36.49a6.19,6.19,0,0,1,6.13,5.33v49.22c0,.46,0,.9.07,1.34A18.62,18.62,0,0,0,151.2,216h46.47a18.64,18.64,0,0,0,18.64-18.64V90.32A18.63,18.63,0,0,0,208,74.82Z"/></g></g></svg>