<svg xmlns="http://www.w3.org/2000/svg" viewBox="0 0 204.26 215.97"><g id="Calque_2" data-name="Calque 2"><g id="Calque_5" data-name="Calque 5"><path d="M198.26,35.4H143.18C141.26,15.58,123.58,0,102.13,0S63,15.58,61.08,35.4H6a6,6,0,0,0-6,6V42a6,6,0,0,0,6,6H24.17V199.38A16.6,16.6,0,0,0,40.77,216H163.49a16.6,16.6,0,0,0,16.6-16.59V48h18.17a6,6,0,0,0,6-6V41.4A6,6,0,0,0,198.26,35.4ZM102.13,12c14.8,0,27.06,10.21,29,23.4H73.16C75.07,22.21,87.33,12,102.13,12Zm-30,155.89a6,6,0,0,1-12,0V83.76a6,6,0,0,1,12,0Zm36-.07a6,6,0,0,1-12,0V83.7a6,6,0,0,1,4.34-5.77c.55,0,1.1,0,1.66,0s1.11,0,1.66,0a6,6,0,0,1,4.34,5.77Zm36,.07a6,6,0,0,1-12,0V83.76a6,6,0,1,1,12,0Z"/></g></g></svg>